# xmcd
#
# Track frame offsets:
#	150
#	12158
#	23740
#	44857
#	64452
#	76760
#	90155
#	104378
#	120211
#	137221
#
# Disc length: 2062 seconds
#
# Revision: 1
# Processed by: cddbd v1.4PL0 Copyright (c) Steve Scherf et al.
# Submitted via: CDmax 1.8
#
DISCID=77080c0a
DTITLE=William D. Smith - A Good Feelin'
DYEAR=1976
DGENRE=Blues
TTITLE0=I'll Be Rolling (With The Punches)
TTITLE1=Down The Back Stairs (Of My Life)
TTITLE2=We Flew Away
TTITLE3=I Feel So Good With You (Baby)
TTITLE4=Harmony Junction
TTITLE5=We All Wanna Boogie
TTITLE6=I Apologize
TTITLE7=What Am I To Do (If You Say Goodbye)
TTITLE8=Fooled Ya
TTITLE9=Take Your Pick (Do Your Trick)
EXTD=Warner Bros Records
EXTT0=
EXTT1=
EXTT2=
EXTT3=
EXTT4=
EXTT5=
EXTT6=
EXTT7=
EXTT8=
EXTT9=
PLAYORDER=
